<?xml version="1.0" encoding="utf-8"?><!DOCTYPE svg PUBLIC "-//W3C//DTD SVG 1.1//EN" "http://www.w3.org/Graphics/SVG/1.1/DTD/svg11.dtd"><svg version="1.1" xmlns="http://www.w3.org/2000/svg" xmlns:xlink="http://www.w3.org/1999/xlink" x="0px" y="0px" viewBox="0 0 100 113.22874999999999" enable-background="new 0 0 100 90.583" xml:space="preserve"><path d="M11.364,18.2H8.98C4.042,18.2,0,22.243,0,27.15v2.398c0,4.807,3.837,8.733,8.595,8.942v46.687H7.329
	c-2.722,0-4.936,2.212-4.936,4.938h15.277c0-2.727-2.223-4.938-4.954-4.938h-0.971V38.491c4.761-0.205,8.571-4.135,8.571-8.943
	V27.15C20.315,22.243,16.303,18.2,11.364,18.2z"/><path d="M90.192,7.145H74.059C74.059,3.194,70.866,0,66.907,0H59.12c-3.953,0-7.151,3.194-7.151,7.145H36.066
	c-5.432,0-10.057,4.428-10.057,9.852v56.947c0,3.658,2.815,6.625,6.448,6.625h1.765v3.402c0,3.657,2.94,6.612,6.626,6.612
	c3.636,0,6.599-2.952,6.599-6.612v-3.402h30.899v3.402c0,3.657,2.955,6.612,6.612,6.612c3.658,0,6.628-2.952,6.628-6.612v-3.402
	h1.765c3.637,0,6.649-2.967,6.649-6.625V16.997C100.003,11.573,95.618,7.145,90.192,7.145z M30.899,17.003
	c0-2.839,2.316-5.153,5.178-5.153h54.11c2.836,0,5.151,2.312,5.151,5.153v0.732c0,2.778-2.367,5.125-5.151,5.125h-54.11
	c-2.86,0-5.178-2.294-5.178-5.125V17.003z M36.194,72.793c-3.249,0-5.888-2.623-5.888-5.888c0-3.247,2.64-5.886,5.888-5.886
	s5.9,2.639,5.9,5.886C42.094,70.17,39.442,72.793,36.194,72.793z M36.077,51.067c-2.86,0-5.178-2.295-5.178-5.129V31.67
	c0-2.824,2.316-5.137,5.178-5.137h54.11c2.836,0,5.151,2.313,5.151,5.137v14.268c0,2.776-2.367,5.129-5.151,5.129H36.077z
	 M89.821,72.793c-3.269,0-5.91-2.623-5.91-5.888c0-3.247,2.642-5.886,5.91-5.886c3.247,0,5.891,2.639,5.891,5.886
	C95.712,70.17,93.068,72.793,89.821,72.793z"/></svg>